<?xml version="1.0" encoding="UTF-8"?>
<svg xmlns="http://www.w3.org/2000/svg" xmlns:xlink="http://www.w3.org/1999/xlink" width="21pt" height="14pt" viewBox="0 0 21 14" version="1.1">
<g id="surface1">
<path style=" stroke:none;fill-rule:nonzero;fill:rgb(34.117647%,69.019608%,29.411765%);fill-opacity:1;" d="M 2.421875 5.554688 L 3.5625 5.554688 C 3.5625 5.554688 4.597656 7.121094 4.628906 7.164062 C 4.660156 7.203125 4.664062 7.164062 4.664062 7.164062 C 4.617188 6.921875 4.566406 6.8125 4.566406 6.425781 L 4.566406 5.554688 L 5.703125 5.554688 L 5.703125 8.453125 L 4.566406 8.453125 C 4.566406 8.453125 3.550781 6.972656 3.519531 6.933594 C 3.488281 6.890625 3.484375 6.933594 3.484375 6.933594 C 3.523438 7.132812 3.558594 7.164062 3.558594 7.511719 L 3.558594 8.453125 L 2.421875 8.453125 Z M 7.492188 7.40625 L 7.648438 6.816406 C 7.679688 6.699219 7.703125 6.527344 7.703125 6.527344 C 7.710938 6.5 7.746094 6.5 7.75 6.527344 C 7.757812 6.566406 7.777344 6.691406 7.8125 6.8125 L 7.96875 7.40625 Z M 7.28125 8.09375 L 8.179688 8.09375 L 8.285156 8.453125 L 9.542969 8.453125 L 8.378906 5.554688 L 7.0625 5.554688 L 5.925781 8.453125 L 7.183594 8.453125 Z M 12.539062 5.554688 L 11.269531 8.453125 L 10.265625 8.453125 L 9 5.554688 L 10.238281 5.554688 L 10.671875 6.875 C 10.71875 7.015625 10.753906 7.328125 10.753906 7.328125 C 10.761719 7.355469 10.792969 7.351562 10.796875 7.328125 C 10.796875 7.328125 10.832031 7.015625 10.878906 6.875 L 11.296875 5.554688 Z M 12.785156 5.554688 L 14.984375 5.554688 L 14.984375 6.347656 L 13.980469 6.347656 L 13.980469 6.625 L 14.898438 6.625 L 14.898438 7.378906 L 13.980469 7.378906 L 13.980469 7.664062 L 15.019531 7.664062 L 15.019531 8.453125 L 12.785156 8.453125 Z M 16.664062 6.335938 L 16.753906 6.335938 C 16.960938 6.335938 17.136719 6.363281 17.136719 6.585938 C 17.136719 6.800781 16.941406 6.828125 16.746094 6.828125 L 16.664062 6.828125 Z M 15.5 8.445312 L 16.664062 8.445312 L 16.664062 7.515625 C 16.664062 7.515625 16.671875 7.480469 16.695312 7.515625 L 17.207031 8.445312 L 18.578125 8.445312 L 17.867188 7.503906 C 17.800781 7.417969 17.691406 7.34375 17.667969 7.328125 C 17.640625 7.3125 17.667969 7.304688 17.667969 7.304688 C 18.109375 7.175781 18.300781 6.992188 18.300781 6.550781 C 18.300781 5.820312 17.675781 5.546875 16.9375 5.546875 L 15.5 5.546875 Z M 15.5 8.445312 "/>
</g>
</svg>
